<svg xmlns="http://www.w3.org/2000/svg" viewBox="0 0 2048 680" preserveAspectRatio="none">
  <defs>
    <linearGradient id="base" x1="0" y1="0" x2="1" y2="1">
      <stop offset="0" stop-color="#fbfdff"/>
      <stop offset="0.48" stop-color="#eef5ff"/>
      <stop offset="1" stop-color="#e3eeff"/>
    </linearGradient>
    <radialGradient id="glowLeft" cx="8%" cy="-8%" r="36%">
      <stop offset="0" stop-color="#ffffff" stop-opacity="0.95"/>
      <stop offset="0.82" stop-color="#ffffff" stop-opacity="0"/>
    </radialGradient>
    <radialGradient id="glowMid" cx="58%" cy="45%" r="62%">
      <stop offset="0" stop-color="#ffffff" stop-opacity="0.42"/>
      <stop offset="1" stop-color="#ffffff" stop-opacity="0"/>
    </radialGradient>
    <pattern id="dots" width="13" height="13" patternUnits="userSpaceOnUse">
      <circle cx="1" cy="1" r="0.72" fill="#ffffff" opacity="0.82"/>
    </pattern>
    <filter id="blur">
      <feGaussianBlur stdDeviation="18"/>
    </filter>
  </defs>

  <rect width="2048" height="680" fill="url(#base)"/>
  <rect width="2048" height="680" fill="url(#glowLeft)"/>
  <rect width="2048" height="680" fill="url(#glowMid)"/>

  <g opacity="0.5" filter="url(#blur)">
    <ellipse cx="244" cy="-74" rx="204" ry="174" fill="#ffffff"/>
    <ellipse cx="596" cy="36" rx="164" ry="146" fill="#ffffff" opacity="0.76"/>
    <ellipse cx="1980" cy="610" rx="250" ry="194" fill="#ffffff" opacity="0.72"/>
  </g>

  <g fill="none" stroke="#ffffff" stroke-width="2" opacity="0.55">
    <path d="M-110 638 C 220 346, 330 300, 512 136 S 760 -42, 1034 -126"/>
    <path d="M-144 684 C 250 372, 378 338, 604 124 S 820 -48, 1114 -112"/>
    <path d="M1660 692 C 1788 548, 1812 346, 1950 148 S 2100 -90, 2204 -170"/>
    <path d="M1712 724 C 1832 582, 1862 386, 2010 172 S 2142 -64, 2218 -128"/>
  </g>

  <g opacity="0.34">
    <path d="M-54 536 C 210 350, 342 328, 510 154 S 724 -8, 1012 -80" fill="none" stroke="url(#dots)" stroke-width="96"/>
    <path d="M1660 716 C 1782 548, 1800 352, 1948 146 S 2114 -82, 2218 -160" fill="none" stroke="url(#dots)" stroke-width="96"/>
  </g>

  <g fill="none" stroke="#ffffff" stroke-width="1" opacity="0.33">
    <path d="M-92 562 C 204 348, 324 326, 498 160 S 724 -16, 1004 -78"/>
    <path d="M-76 590 C 218 376, 350 350, 536 166 S 762 -2, 1048 -62"/>
    <path d="M1652 700 C 1770 542, 1804 358, 1944 154 S 2106 -76, 2198 -148"/>
    <path d="M1690 732 C 1812 586, 1848 390, 2008 184 S 2142 -46, 2228 -118"/>
  </g>
</svg>
