<svg xmlns="http://www.w3.org/2000/svg" viewBox="0 0 2048 900" preserveAspectRatio="xMidYMid slice">
  <defs>
    <linearGradient id="base" x1="0" y1="0" x2="1" y2="1">
      <stop offset="0" stop-color="#fff8fb"/>
      <stop offset="0.5" stop-color="#fff3f8"/>
      <stop offset="1" stop-color="#ffdbea"/>
    </linearGradient>
    <radialGradient id="glow" cx="46%" cy="38%" r="55%">
      <stop offset="0" stop-color="#ffffff" stop-opacity="0.92"/>
      <stop offset="1" stop-color="#ffffff" stop-opacity="0"/>
    </radialGradient>
    <filter id="soft">
      <feGaussianBlur stdDeviation="14"/>
    </filter>
    <pattern id="dots" width="26" height="26" patternUnits="userSpaceOnUse">
      <circle cx="3" cy="3" r="2" fill="#ee8fb2" opacity=".42"/>
    </pattern>
  </defs>

  <rect width="2048" height="900" fill="url(#base)"/>
  <rect width="2048" height="900" fill="url(#glow)"/>

  <g opacity=".45" filter="url(#soft)">
    <ellipse cx="-50" cy="130" rx="255" ry="260" fill="#f8b8d0"/>
    <ellipse cx="1985" cy="265" rx="260" ry="250" fill="#f9c4d9"/>
    <ellipse cx="360" cy="835" rx="440" ry="130" fill="#f7bdd4"/>
    <ellipse cx="1650" cy="820" rx="510" ry="150" fill="#f3a8c6"/>
  </g>

  <g fill="none" stroke="#ffffff" stroke-width="2" opacity=".6">
    <path d="M-64 760 C 242 650, 498 760, 714 690 S 1030 536, 1278 648 S 1668 824, 2134 672"/>
    <path d="M-40 804 C 230 710, 490 810, 732 732 S 1058 588, 1288 694 S 1660 864, 2110 724"/>
    <path d="M-10 848 C 276 748, 530 850, 764 772 S 1070 632, 1308 738 S 1682 896, 2138 764"/>
    <path d="M720 -40 C 870 72, 996 98, 1144 -26"/>
    <path d="M768 -8 C 902 84, 1006 104, 1126 12"/>
  </g>

  <g opacity=".72">
    <rect x="64" y="44" width="150" height="86" fill="url(#dots)" opacity=".55"/>
    <rect x="1832" y="760" width="140" height="78" fill="url(#dots)" opacity=".42"/>
  </g>

  <g opacity=".5" fill="none" stroke="#e98dae" stroke-width="2" stroke-dasharray="10 12">
    <path d="M172 612 C 288 660, 336 574, 430 598 S 566 706, 660 650"/>
    <path d="M1418 406 C 1538 320, 1666 374, 1748 456 S 1848 528, 1946 462"/>
    <path d="M1690 156 C 1798 82, 1922 86, 2048 166"/>
  </g>

  <g opacity=".78" fill="#f090b5">
    <path d="M1742 170 l70 -34 -16 30 36 12 -72 14z"/>
    <path d="M512 640 l66 -22 -20 24 31 18 -70 5z"/>
    <path d="M232 598 l42 -12 -12 18 20 8 -45 8z"/>
  </g>

  <g opacity=".42" fill="none" stroke="#e98dae" stroke-width="5">
    <circle cx="136" cy="512" r="12"/>
    <circle cx="1942" cy="342" r="10" fill="#e98dae" opacity=".32"/>
    <path d="M100 564 l8 20 20 8 -20 8 -8 20 -8 -20 -20 -8 20 -8z" stroke-width="2"/>
    <path d="M1470 238 l8 20 20 8 -20 8 -8 20 -8 -20 -20 -8 20 -8z" stroke-width="2"/>
  </g>

  <g transform="translate(1190 432)">
    <ellipse cx="450" cy="300" rx="390" ry="42" fill="#dc7ea5" opacity=".18"/>
    <rect x="298" y="222" width="442" height="22" rx="11" fill="#e98dae"/>
    <rect x="648" y="180" width="26" height="180" rx="10" fill="#d86b98"/>
    <rect x="372" y="192" width="168" height="94" rx="8" fill="#f2a9c5"/>
    <rect x="388" y="206" width="136" height="74" rx="6" fill="#fff5fa" opacity=".55"/>

    <g transform="translate(96 4)">
      <path d="M160 56 C 100 62, 84 112, 104 154 C 120 190, 162 194, 204 184 C 260 170, 286 116, 258 78 C 238 50, 196 48, 160 56z" fill="#7c204a"/>
      <circle cx="200" cy="134" r="54" fill="#ffb0c9"/>
      <path d="M156 102 C 176 88, 216 98, 230 124 C 222 84, 194 64, 152 72 C 122 82, 112 112, 120 142 C 128 126, 138 112, 156 102z" fill="#772447"/>
      <path d="M186 178 C 202 190, 228 190, 246 178 L266 230 L168 230z" fill="#ffb0c9"/>
      <path d="M118 236 C 168 206, 250 206, 302 238 L324 410 L92 410z" fill="#ef8ab2"/>
      <path d="M118 236 C 156 282, 230 306, 302 238 L314 410 L106 410z" fill="#f49abc"/>
      <path d="M104 410 L322 410 L342 512 L164 512 C 130 492, 108 458, 104 410z" fill="#4a2b51"/>
    </g>

    <g transform="translate(590 -12)">
      <path d="M184 60 C 264 42, 336 100, 330 194 C 326 264, 262 292, 206 274 C 166 262, 146 232, 150 182 C 154 124, 144 78, 184 60z" fill="#842855"/>
      <circle cx="202" cy="148" r="54" fill="#ffc0d3"/>
      <path d="M160 128 C 196 92, 242 100, 278 146 C 274 92, 238 56, 186 62 C 150 72, 136 102, 140 144z" fill="#7a244c"/>
      <path d="M200 188 C 216 202, 244 202, 266 188 L278 244 L188 244z" fill="#ffc0d3"/>
      <path d="M110 254 C 168 218, 282 220, 340 254 L362 436 L84 436z" fill="#d96a9b"/>
      <path d="M146 276 L214 322 L264 274 L300 436 L112 436z" fill="#fff9fc"/>
      <path d="M94 334 C 42 354, 10 322, 28 292 C 54 304, 76 310, 118 288z" fill="#ffc0d3"/>
      <path d="M332 336 C 392 330, 422 296, 408 264 C 378 284, 348 292, 314 294z" fill="#ffc0d3"/>
    </g>
  </g>

  <g transform="translate(92 610)" opacity=".68">
    <rect x="0" y="92" width="260" height="110" rx="8" fill="#f4a9c5"/>
    <path d="M-22 92 L130 20 L282 92z" fill="#ec8db3"/>
    <rect x="42" y="122" width="36" height="80" fill="#ffe8f1"/>
    <rect x="112" y="122" width="44" height="80" fill="#ffe8f1"/>
    <rect x="190" y="122" width="36" height="80" fill="#ffe8f1"/>
    <rect x="120" y="150" width="34" height="52" fill="#d86b98"/>
  </g>
</svg>
